# xmcd CD database file
#
# Track frame offsets:
#	150
#	29212
#	65525
#	107574
#	135697
#	168129
#
# Disc length: 2656 seconds
#
# Revision: 3
# Processed by: cddbd v1.5.2PL0 Copyright (c) Steve Scherf et al.
# Submitted via: CDex 1.51
#
DISCID=4f0a5e06
DTITLE=Joe Bonamassa - Live At Carnegie Hall - An Acoustic Evening (2)
DYEAR=2016
DGENRE=Blues
TTITLE0=Mountain Time
TTITLE1=How Can A Poor Man Stand Such Times And Live?
TTITLE2=Song Of Yesterday
TTITLE3=Woke Up Dreaming
TTITLE4=Hummingbird
TTITLE5=The Rose
EXTD=YEAR: 2016
EXTT0=
EXTT1=
EXTT2=
EXTT3=
EXTT4=
EXTT5=
PLAYORDER=
